<svg xmlns="http://www.w3.org/2000/svg" version="1.1" xmlns:xlink="http://www.w3.org/1999/xlink" xmlns:svgjs="http://svgjs.dev/svgjs" width="180" height="180"><svg width="180" height="180" viewBox="0 0 180 180" version="1.1" id="SvgjsSvg1182" xmlns="http://www.w3.org/2000/svg" xmlns:svg="http://www.w3.org/2000/svg">
  <defs id="SvgjsDefs1181"></defs>
  <g id="SvgjsG1180">
    <path d="m 131.15829,46.686611 -1.36113,7.983299 c -0.90321,5.289668 -2.0455,10.678753 -3.30221,16.081011 -1.2316,5.294347 -2.59529,10.59505 -4.15636,15.856129 -5.13564,17.30802 -12.01149,34.04743 -20.48199,47.74592 H 99.607788 83.751659 78.143426 C 69.673042,120.65448 62.798516,103.91507 57.663414,86.60705 H 42.785718 V 78.678986 47.854417 l -1.895713,0.364941 C 28.336386,50.636524 18.602832,56.590384 12.349761,64.724487 6.0966911,72.85859 3.3842249,82.788148 3.1256684,92.773542 2.6370869,111.64245 10.297285,131.26244 22.362913,145.30313 v 4.90597 13.9328 7.93004 V 180 H 38.219042 145.1404 160.99653 v -7.92806 -7.93004 -13.9328 -7.92806 -1.20134 C 171.09659,127.47334 177.31579,109.82104 176.87436,92.773542 176.6158,82.788148 173.90334,72.85859 167.65027,64.724487 161.3972,56.590385 151.66365,50.636524 139.11003,48.219358 Z M 36.410126,66.00868 c 4.690385,23.377813 12.294548,47.66875 23.431089,68.34429 H 38.219042 33.889084 c -8.975849,-10.91639 -15.26878,-27.43686 -14.913205,-41.169118 0.191884,-7.410517 2.144153,-13.850441 5.945556,-18.795372 2.656578,-3.455723 6.341292,-6.317183 11.488691,-8.3798 z m 107.179774,0 c 5.14741,2.062617 8.83211,4.924077 11.48869,8.3798 3.80141,4.944932 5.75368,11.384855 5.94556,18.795372 0.35558,13.732258 -5.93736,30.252728 -14.9132,41.169118 h -0.97055 -24.98158 c 11.13653,-20.67554 18.7407,-44.966477 23.43108,-68.34429 z M 38.219042,150.2091 H 145.1404 v 13.9328 H 38.219042 Z" style="fill:#ffffff;stroke-width:1;paint-order:fill markers stroke" id="SvgjsPath1179"></path>
    <path d="M 83.751659,-3.4457581e-6 V 12.473038 H 72.1525 v 15.858101 h 11.599159 v 38.64611 3.773672 H 58.641846 V 44.362834 20.401102 12.473038 H 42.785718 v 7.928064 23.961732 3.491583 30.824569 7.928064 h 7.928064 6.949632 0.978432 25.109813 V 150.2091 H 99.607788 V 86.60705 h 22.730802 c 1.56107,-5.261079 2.92476,-10.561782 4.15636,-15.856129 H 99.607788 V 66.977249 28.331139 H 111.20694 V 12.473038 H 99.607788 V -3.4457581e-6 Z" style="fill:#db0000;fill-opacity:1;stroke-width:1;paint-order:fill markers stroke" id="SvgjsPath1178"></path>
  </g>
</svg><style>@media (prefers-color-scheme: light) { :root { filter: none; } }
@media (prefers-color-scheme: dark) { :root { filter: none; } }
</style></svg>